<svg width="140" height="50" viewBox="0 0 140 50" fill="none" xmlns="http://www.w3.org/2000/svg">
<rect width="140" height="50" rx="25" fill="#D97652"/>
<path d="M36.2578 31H32.2734V19.6875H36.3047C39.7109 19.6875 41.7891 21.8125 41.7891 25.3281C41.7891 28.875 39.7109 31 36.2578 31ZM34.6172 28.9844H36.1641C38.3203 28.9844 39.4453 27.8594 39.4453 25.3281C39.4453 22.8125 38.3203 21.7031 36.1797 21.7031H34.6172V28.9844ZM47.2578 31.1719C44.6953 31.1719 43.1016 29.4062 43.1016 26.7812C43.1016 24.1562 44.6953 22.4062 47.2578 22.4062C49.8203 22.4062 51.4297 24.1562 51.4297 26.7812C51.4297 29.4062 49.8203 31.1719 47.2578 31.1719ZM47.2734 29.375C48.4609 29.375 49.0703 28.2656 49.0703 26.7812C49.0703 25.2812 48.4609 24.1719 47.2734 24.1719C46.0703 24.1719 45.4453 25.2812 45.4453 26.7812C45.4453 28.2656 46.0703 29.375 47.2734 29.375ZM54.3359 31L52.0234 22.5156H54.3672L55.6953 28.25H55.7734L57.1641 22.5156H59.4609L60.8672 28.2188H60.9453L62.2578 22.5156H64.6016L62.2734 31H59.8359L58.3672 25.6094H58.2578L56.7891 31H54.3359ZM68.0859 26.0938V31H65.7734V22.5156H67.9766V24H68.0703C68.4609 23.0156 69.3672 22.4062 70.6172 22.4062C72.3828 22.4062 73.5547 23.6094 73.5391 25.5938V31H71.2422V26C71.2422 24.9531 70.6641 24.3281 69.7109 24.3281C68.7422 24.3281 68.0859 24.9688 68.0859 26.0938ZM77.6484 19.6875V31H75.3359V19.6875H77.6484ZM83.2578 31.1719C80.6953 31.1719 79.1016 29.4062 79.1016 26.7812C79.1016 24.1562 80.6953 22.4062 83.2578 22.4062C85.8203 22.4062 87.4297 24.1562 87.4297 26.7812C87.4297 29.4062 85.8203 31.1719 83.2578 31.1719ZM83.2734 29.375C84.4609 29.375 85.0703 28.2656 85.0703 26.7812C85.0703 25.2812 84.4609 24.1719 83.2734 24.1719C82.0703 24.1719 81.4453 25.2812 81.4453 26.7812C81.4453 28.2656 82.0703 29.375 83.2734 29.375ZM88.4766 28.625C88.4766 26.7344 90.0078 26.1094 91.6328 26.0156C92.2422 25.9766 93.3828 25.9219 93.7422 25.9062V25.2188C93.7266 24.5156 93.2422 24.0938 92.3828 24.0938C91.6016 24.0938 91.1016 24.4531 90.9766 25.0312H88.7734C88.9141 23.5625 90.1953 22.4062 92.4453 22.4062C94.2891 22.4062 96.0391 23.2344 96.0391 25.2812V31H93.8516V29.8281H93.7891C93.3672 30.6094 92.5703 31.1562 91.3047 31.1562C89.6797 31.1562 88.4766 30.3125 88.4766 28.625ZM90.6953 28.5625C90.6953 29.2188 91.2266 29.5625 91.9609 29.5625C93.0078 29.5625 93.7578 28.8594 93.7422 27.9688V27.3438C93.3906 27.3594 92.4062 27.4141 92.0078 27.4531C91.2109 27.5312 90.6953 27.9062 90.6953 28.5625ZM100.93 31.1406C98.9922 31.1406 97.4766 29.5938 97.4766 26.7656C97.4766 23.8594 99.0547 22.4062 100.93 22.4062C102.352 22.4062 103.023 23.25 103.336 23.9375H103.414V19.6875H105.727V31H103.445V29.6406H103.336C103.008 30.3438 102.305 31.1406 100.93 31.1406ZM101.648 29.2969C102.805 29.2969 103.461 28.2812 103.461 26.75C103.461 25.2188 102.805 24.25 101.648 24.25C100.477 24.25 99.8516 25.2656 99.8516 26.75C99.8516 28.25 100.477 29.2969 101.648 29.2969Z" fill="white"/>
</svg>
